<?xml version="1.0" encoding="UTF-8" standalone="no"?>
<!-- Created with Inkscape (http://www.inkscape.org/) -->

<svg
   xmlns:dc="http://purl.org/dc/elements/1.1/"
   xmlns:cc="http://creativecommons.org/ns#"
   xmlns:rdf="http://www.w3.org/1999/02/22-rdf-syntax-ns#"
   xmlns:svg="http://www.w3.org/2000/svg"
   xmlns="http://www.w3.org/2000/svg"
   xmlns:sodipodi="http://sodipodi.sourceforge.net/DTD/sodipodi-0.dtd"
   xmlns:inkscape="http://www.inkscape.org/namespaces/inkscape"
   width="210mm"
   height="297mm"
   viewBox="0 0 210 297"
   version="1.1"
   id="svg8"
   inkscape:version="0.92.4 (5da689c313, 2019-01-14)"
   sodipodi:docname="drawing2.svg">
  <defs
     id="defs2" />
  <sodipodi:namedview
     id="base"
     pagecolor="#ffffff"
     bordercolor="#666666"
     borderopacity="1.0"
     inkscape:pageopacity="0.0"
     inkscape:pageshadow="2"
     inkscape:zoom="0.49497475"
     inkscape:cx="4.0468081"
     inkscape:cy="492.34122"
     inkscape:document-units="mm"
     inkscape:current-layer="layer1"
     showgrid="false"
     inkscape:snap-object-midpoints="true"
     inkscape:window-width="1920"
     inkscape:window-height="1017"
     inkscape:window-x="-8"
     inkscape:window-y="-8"
     inkscape:window-maximized="1" />
  <metadata
     id="metadata5">
    <rdf:RDF>
      <cc:Work
         rdf:about="">
        <dc:format>image/svg+xml</dc:format>
        <dc:type
           rdf:resource="http://purl.org/dc/dcmitype/StillImage" />
        <dc:title></dc:title>
      </cc:Work>
    </rdf:RDF>
  </metadata>
  <g
     inkscape:label="Layer 1"
     inkscape:groupmode="layer"
     id="layer1">
    <circle
       style="stroke-width:0.1603044"
       r="6.9846926"
       cy="94.802681"
       cx="177.81094"
       id="circle3715" />
    <path
       style="fill:#ffffff;fill-opacity:1;stroke-width:0.1619319"
       d="m 176.76432,99.200576 c -0.87967,-0.219909 -1.40964,-0.527542 -2.09718,-1.21736 -2.14382,-2.150947 -1.67297,-5.5909 0.96834,-7.074453 1.81248,-1.018021 3.82598,-0.731077 5.3144,0.757356 1.75,1.749989 1.81084,4.243247 0.15168,6.215043 -0.87891,1.044534 -2.93491,1.669979 -4.33724,1.319414 z"
       id="path3734"
       inkscape:connector-curvature="0" />
    <path
       style="fill:none;stroke:#000000;stroke-width:3.06500006;stroke-linecap:butt;stroke-linejoin:miter;stroke-miterlimit:4;stroke-dasharray:24.52, 3.065;stroke-dashoffset:0;stroke-opacity:1"
       d="m 181.20874,103.76413 c 0,0 10.95805,44.90128 -21.38157,42.76312 -32.33961,-2.13815 -36.90223,-12.70021 -98.889719,-6.68174 -63.2271759,6.13883 -74.182119,121.09353 22.45064,108.24416"
       id="path4555"
       inkscape:connector-curvature="0"
       sodipodi:nodetypes="cssc" />
    <path
       sodipodi:type="star"
       style="fill:#ffffff;fill-opacity:1;stroke-width:3.06500006;stroke-miterlimit:4;stroke-dasharray:24.51999969, 3.06499996;stroke-dashoffset:0"
       id="path4589"
       sodipodi:sides="5"
       sodipodi:cx="122.40944"
       sodipodi:cy="246.75333"
       sodipodi:r1="13.737763"
       sodipodi:r2="6.8688812"
       sodipodi:arg1="0.64739208"
       sodipodi:arg2="1.2757106"
       inkscape:flatsided="false"
       inkscape:rounded="0"
       inkscape:randomized="0"
       d="m 133.36749,255.03868 -8.96043,-1.71336 -6.49124,6.41005 -1.13942,-9.05134 -8.10223,-4.19272 8.25624,-3.88066 1.48379,-9.0013 6.24205,6.65295 9.01926,-1.37039 -4.39844,7.99242 z"
       inkscape:transform-center-x="1.2345991"
       inkscape:transform-center-y="-0.080969263" />
    <rect
       style="fill:#000000;fill-opacity:1;stroke-width:1.48228276;stroke-miterlimit:4;stroke-dasharray:11.85826152, 1.48228269;stroke-dashoffset:0"
       id="rect4597"
       width="2.4570053"
       height="17.925745"
       x="204.34602"
       y="154.84143"
       transform="rotate(30.703951)" />
    <rect
       style="fill:#000000;fill-opacity:1;stroke-width:1.48228288;stroke-miterlimit:4;stroke-dasharray:11.85826165, 1.48228271;stroke-dashoffset:0"
       id="rect4597-0"
       width="2.4570053"
       height="17.925745"
       x="-169.21994"
       y="193.20441"
       transform="rotate(-60.472757)" />
    <circle
       style="stroke-width:0.12350007"
       r="5.3810754"
       cy="144.65637"
       cx="41.159515"
       id="circle3715-2" />
    <path
       style="fill:#ffffff;fill-opacity:1;stroke-width:0.12475392"
       d="m 40.353178,148.04455 c -0.677706,-0.16942 -1.086,-0.40642 -1.615688,-0.93787 -1.65162,-1.6571 -1.288872,-4.30728 0.746019,-5.45022 1.396352,-0.7843 2.947572,-0.56323 4.094265,0.58347 1.348217,1.34821 1.395089,3.26904 0.116856,4.78813 -0.677121,0.80472 -2.261083,1.28657 -3.341452,1.01649 z"
       id="path3734-7"
       inkscape:connector-curvature="0" />
    <circle
       style="stroke-width:0.12350007"
       r="5.3810754"
       cy="240.8734"
       cx="34.210503"
       id="circle3715-2-5" />
    <path
       style="fill:#ffffff;fill-opacity:1;stroke-width:0.12475392"
       d="m 33.404162,244.26158 c -0.677706,-0.16942 -1.086,-0.40642 -1.615688,-0.93787 -1.65162,-1.6571 -1.288872,-4.30728 0.746019,-5.45022 1.396352,-0.7843 2.947572,-0.56323 4.094265,0.58347 1.348217,1.34821 1.395089,3.26904 0.116856,4.78813 -0.677121,0.80472 -2.261083,1.28657 -3.341452,1.01649 z"
       id="path3734-7-5"
       inkscape:connector-curvature="0" />
    <circle
       style="stroke-width:0.12350007"
       r="5.3810754"
       cy="143.05275"
       cx="136.30746"
       id="circle3715-2-3" />
    <path
       style="fill:#ffffff;fill-opacity:1;stroke-width:0.12475392"
       d="m 135.50112,146.44093 c -0.6777,-0.16942 -1.086,-0.40642 -1.61569,-0.93787 -1.65162,-1.6571 -1.28887,-4.30728 0.74602,-5.45022 1.39635,-0.7843 2.94757,-0.56323 4.09427,0.58347 1.34821,1.34821 1.39509,3.26904 0.11685,4.78813 -0.67712,0.80472 -2.26108,1.28657 -3.34145,1.01649 z"
       id="path3734-7-0"
       inkscape:connector-curvature="0" />
  </g>
</svg>
