<svg version="1.1" id="Layer_1" xmlns="http://www.w3.org/2000/svg" xmlns:xlink="http://www.w3.org/1999/xlink" x="0px" y="0px"
	 width="100%" viewBox="0 0 496 496" enable-background="new 0 0 496 496" xml:space="preserve">
<path fill="#000000" opacity="1.000000" stroke="none" 
	d="
M306.235474,332.210510 
	C283.450043,327.692261 264.709229,317.127930 250.237732,299.315857 
	C237.291183,283.380768 230.224274,265.034576 229.862518,244.651550 
	C229.309708,213.503738 229.755844,182.338989 229.614517,151.182175 
	C229.595581,147.004623 231.074799,145.722488 235.142624,145.728683 
	C292.625488,145.816391 350.108521,145.812134 407.591370,145.720978 
	C411.617615,145.714584 413.244476,146.944489 413.228241,151.143829 
	C413.108978,181.967545 413.626495,212.800919 413.035767,243.613846 
	C412.195099,287.460388 380.820465,323.816315 337.489960,331.997192 
	C327.282898,333.924316 316.956818,333.780731 306.235474,332.210510 
z"/>
<path fill="#000000" opacity="1.000000" stroke="none" 
	d="
M190.361206,160.553360 
	C228.598083,189.208771 231.731979,244.189529 197.094666,275.834930 
	C193.946152,278.711487 194.022629,281.141541 195.857590,284.510773 
	C202.864960,297.377014 209.731812,310.319916 216.620285,323.250610 
	C217.541992,324.980835 218.906876,326.556915 218.855911,328.725800 
	C217.288651,330.515991 215.163727,330.007965 213.245575,330.009277 
	C163.612427,330.042725 113.979195,330.002625 64.346237,330.105377 
	C60.033802,330.114319 58.581718,328.686432 58.590611,324.315979 
	C58.707527,266.854889 58.708969,209.393387 58.598297,151.932281 
	C58.590187,147.722290 60.037189,146.561096 64.080948,146.581100 
	C92.727654,146.722839 121.377151,146.478882 150.021912,146.756409 
	C164.727219,146.898880 178.013596,151.994507 190.361206,160.553360 
z"/>
<path fill="#000000" opacity="1.000000" stroke="none" 
	d="
M454.022095,296.015320 
	C461.344513,296.022827 468.171936,296.078613 474.998352,296.016907 
	C478.140320,295.988525 479.431274,297.273193 479.386902,300.510040 
	C479.252228,310.332550 479.279114,320.158539 479.364716,329.982056 
	C479.390320,332.915863 478.275269,334.246429 475.285309,334.226959 
	C465.461548,334.162903 455.636810,334.148132 445.813171,334.218079 
	C442.449158,334.242065 441.599976,332.505493 441.628357,329.503540 
	C441.716492,320.179596 441.829559,310.849548 441.576721,301.531555 
	C441.463715,297.367889 442.990173,295.737701 447.034576,296.012299 
	C449.188751,296.158569 451.362061,296.023560 454.022095,296.015320 
z"/>
</svg>